# xmcd
#
# Track frame offsets:
#	150
#	24452
#	40603
#	52665
#	69241
#	79349
#	95441
#	105713
#	124114
#	142961
#	161968
#	173773
#
# Disc length: 2516 seconds
#
# Revision: 0
# Processed by: cddbd v1.5.2PL0 Copyright (c) Steve Scherf et al.
# Submitted via: dBpowerAMP V4.0
#
DISCID=9209d20c
DTITLE=Jean Lesley Morley - Reflections
DYEAR=1900
DGENRE=Country
TTITLE0=It's Gonna Take Time
TTITLE1=Heading for a Line-dance  Breakdown
TTITLE2=Who's to say
TTITLE3=Love that country Music
TTITLE4=You Need Me
TTITLE5=Back on course for love
TTITLE6=Ashleigh-Marie
TTITLE7=Home
TTITLE8=Last Country Song
TTITLE9=I Can't sleep at night
TTITLE10=He's in Love
TTITLE11=Autmn
EXTD=
EXTT0=
EXTT1=
EXTT2=
EXTT3=
EXTT4=
EXTT5=
EXTT6=
EXTT7=
EXTT8=
EXTT9=
EXTT10=
EXTT11=
PLAYORDER=
